HIERARCHY
ROOT hip
{
  OFFSET 0 0 0
  CHANNELS 6 Xposition Yposition Zposition Zrotation Yrotation Xrotation
  JOINT abdomen
  {
    OFFSET 0 20.6881 -0.73152
    CHANNELS 3 Zrotation Xrotation Yrotation
    JOINT chest
    {
      OFFSET 0 11.7043 -0.48768
      CHANNELS 3 Zrotation Xrotation Yrotation
      JOINT neck
      {
        OFFSET 0 22.1894 -2.19456
        CHANNELS 3 Zrotation Xrotation Yrotation
        JOINT head
        {
          OFFSET -0.24384 7.07133 1.2192
          CHANNELS 3 Zrotation Xrotation Yrotation
          JOINT leftEye
          {
            OFFSET 4.14528 8.04674 8.04672
            CHANNELS 3 Zrotation Xrotation Yrotation
            End Site
            {
              OFFSET 1 0 0
            }
          }
          JOINT rightEye
          {
            OFFSET -3.6576 8.04674 8.04672
            CHANNELS 3 Zrotation Xrotation Yrotation
            End Site
            {
              OFFSET 1 0 0
            }
          }
        }
      }
      JOINT rCollar
      {
        OFFSET -2.68224 19.2634 -4.8768
        CHANNELS 3 Zrotation Xrotation Yrotation
        JOINT rShldr
        {
          OFFSET -8.77824 -1.95073 1.46304
          CHANNELS 3 Zrotation Xrotation Yrotation
          JOINT rForeArm
          {
            OFFSET -28.1742 -1.7115 0.48768
            CHANNELS 3 Zrotation Xrotation Yrotation
            JOINT rHand
            {
              OFFSET -22.5879 0.773209 7.07136
              CHANNELS 3 Zrotation Xrotation Yrotation
              JOINT rThumb1
              {
                OFFSET -1.2192 -0.487915 3.41376
                CHANNELS 3 Zrotation Xrotation Yrotation
                JOINT rThumb2
                {
                  OFFSET -3.37035 -0.52449 3.41376
                  CHANNELS 3 Zrotation Xrotation Yrotation
                  End Site
                  {
                    OFFSET -1.78271 -1.18214 1.43049
                  }
                }
              }
              JOINT rIndex1
              {
                OFFSET -7.75947 0.938293 5.60832
                CHANNELS 3 Zrotation Xrotation Yrotation
                JOINT rIndex2
                {
                  OFFSET -2.54057 -0.884171 1.56538
                  CHANNELS 3 Zrotation Xrotation Yrotation
                  End Site
                  {
                    OFFSET -1.62519 -0.234802 1.16502
                  }
                }
              }
              JOINT rMid1
              {
                OFFSET -8.24714 1.18213 3.41376
                CHANNELS 3 Zrotation Xrotation Yrotation
                JOINT rMid2
                {
                  OFFSET -3.10165 -0.590103 1.0647
                  CHANNELS 3 Zrotation Xrotation Yrotation
                  End Site
                  {
                    OFFSET -2.48547 -0.328903 0.83742
                  }
                }
              }
              JOINT rRing1
              {
                OFFSET -8.82822 0.546677 1.51678
                CHANNELS 3 Zrotation Xrotation Yrotation
                JOINT rRing2
                {
                  OFFSET -2.60934 -0.819778 -0.0198488
                  CHANNELS 3 Zrotation Xrotation Yrotation
                  End Site
                  {
                    OFFSET -2.33842 -0.294052 0.168128
                  }
                }
              }
              JOINT rPinky1
              {
                OFFSET -8.27202 -0.0477905 -0.4584
                CHANNELS 3 Zrotation Xrotation Yrotation
                JOINT rPinky2
                {
                  OFFSET -1.82734 -0.647385 -0.700984
                  CHANNELS 3 Zrotation Xrotation Yrotation
                  End Site
                  {
                    OFFSET -1.69225 -0.51767 -0.607171
                  }
                }
              }
            }
          }
        }
      }
      JOINT lCollar
      {
        OFFSET 2.68224 19.2634 -4.8768
        CHANNELS 3 Zrotation Xrotation Yrotation
        JOINT lShldr
        {
          OFFSET 8.77824 -1.95073 1.46304
          CHANNELS 3 Zrotation Xrotation Yrotation
          JOINT lForeArm
          {
            OFFSET 28.1742 -1.7115 0.48768
            CHANNELS 3 Zrotation Xrotation Yrotation
            JOINT lHand
            {
              OFFSET 22.5879 0.773209 7.07136
              CHANNELS 3 Zrotation Xrotation Yrotation
              JOINT lThumb1
              {
                OFFSET 1.2192 -0.487915 3.41376
                CHANNELS 3 Zrotation Xrotation Yrotation
                JOINT lThumb2
                {
                  OFFSET 3.37035 -0.52449 3.41376
                  CHANNELS 3 Zrotation Xrotation Yrotation
                  End Site
                  {
                    OFFSET 1.78271 -1.18214 1.43049
                  }
                }
              }
              JOINT lIndex1
              {
                OFFSET 7.75947 0.938293 5.60832
                CHANNELS 3 Zrotation Xrotation Yrotation
                JOINT lIndex2
                {
                  OFFSET 2.54057 -0.884171 1.56538
                  CHANNELS 3 Zrotation Xrotation Yrotation
                  End Site
                  {
                    OFFSET 1.62519 -0.234802 1.16502
                  }
                }
              }
              JOINT lMid1
              {
                OFFSET 8.24714 1.18213 3.41376
                CHANNELS 3 Zrotation Xrotation Yrotation
                JOINT lMid2
                {
                  OFFSET 3.10165 -0.590103 1.0647
                  CHANNELS 3 Zrotation Xrotation Yrotation
                  End Site
                  {
                    OFFSET 2.48547 -0.328903 0.83742
                  }
                }
              }
              JOINT lRing1
              {
                OFFSET 8.82822 0.546677 1.51678
                CHANNELS 3 Zrotation Xrotation Yrotation
                JOINT lRing2
                {
                  OFFSET 2.60934 -0.819778 -0.0198488
                  CHANNELS 3 Zrotation Xrotation Yrotation
                  End Site
                  {
                    OFFSET 2.33842 -0.294052 0.168128
                  }
                }
              }
              JOINT lPinky1
              {
                OFFSET 8.27202 -0.0477905 -0.4584
                CHANNELS 3 Zrotation Xrotation Yrotation
                JOINT lPinky2
                {
                  OFFSET 1.82734 -0.647385 -0.700984
                  CHANNELS 3 Zrotation Xrotation Yrotation
                  End Site
                  {
                    OFFSET 1.69225 -0.51767 -0.607171
                  }
                }
              }
            }
          }
        }
      }
    }
  }
  JOINT rButtock
  {
    OFFSET -8.77824 4.35084 1.2192
    CHANNELS 3 Zrotation Xrotation Yrotation
    JOINT rThigh
    {
      OFFSET 0 -1.70687 -2.19456
      CHANNELS 3 Zrotation Xrotation Yrotation
      JOINT rShin
      {
        OFFSET 0 -36.8199 0.73152
        CHANNELS 3 Zrotation Xrotation Yrotation
        JOINT rFoot
        {
          OFFSET 0.73152 -45.1104 -5.12064
          CHANNELS 3 Zrotation Xrotation Yrotation
          End Site
          {
            OFFSET -1.1221 -3.69964 12.103
          }
        }
      }
    }
  }
  JOINT lButtock
  {
    OFFSET 8.77824 4.35084 1.2192
    CHANNELS 3 Zrotation Xrotation Yrotation
    JOINT lThigh
    {
      OFFSET 0 -1.70687 -2.19456
      CHANNELS 3 Zrotation Xrotation Yrotation
      JOINT lShin
      {
        OFFSET 0 -36.8199 0.73152
        CHANNELS 3 Zrotation Xrotation Yrotation
        JOINT lFoot
        {
          OFFSET -0.73152 -45.1104 -5.12064
          CHANNELS 3 Zrotation Xrotation Yrotation
          End Site
          {
            OFFSET 1.1221 -3.69964 12.103
          }
        }
      }
    }
  }
}
MOTION
Frames:	6
Frame Time:	0.00833333
-4.87764 57.9356 0.902177 0.0 0.0 0.0 -0.0 -4.771896 -180.0 0.0 -4.771896 -180.0 11.624331 6.892644 83.839365 -8.105668 10.81949 -83.772938 0.0 -0.0 -0.0 0.0 -0.0 -0.0 -153.578749 7.463415 159.321023 98.210221 -77.892772 74.273902 -3.535122 -83.85751 -7.393403 -1.814923 5.811899 -0.106924 87.247882 -50.68899 36.415345 -90.237485 38.546316 51.867115 -140.763228 1.380556 116.229033 -67.405202 61.738382 57.450437 -171.869892 -41.091283 145.160004 -156.428983 6.73114 139.593103 -0.000142 -0.018512 -0.005816 1.294469 -33.817336 -3.976583 -146.184456 15.332341 -142.71147 -83.318306 -51.791363 -85.119888 153.979587 5.407385 -159.825069 -32.361948 -40.972407 -16.672552 -1.353102 25.579619 32.479726 -166.82202 -26.543497 -142.112249 173.770775 -11.439911 -89.891324 -172.359162 -23.525502 -98.167582 140.684449 1.505836 -116.183204 -157.433967 -70.749035 -92.796758 160.673322 -6.667841 -143.245105 2.877693 23.448724 -5.433799 0.000142 -0.018533 0.005823 16.331825 61.910743 -18.682963 4.66183 -10.865904 4.365617 154.08713 28.664261 147.671258 -180.0 75.749642 -0.0 -180.0 75.749642 -0.0 4.114029 0.757467 37.116435 -139.733917 -5.794236 50.775124 -180.0 75.749642 -0.0 -180.0 75.749642 -0.0 5.253206 4.259844 61.803787 -151.018856 -10.263921 55.350778
-4.97793 57.8569 -0.00880984 0.0 -0.0 0.0 -0.0 -4.771896 -180.0 0.0 -4.771896 -180.0 12.079709 9.363427 98.098662 -7.558542 13.273406 -98.210849 -0.0 0.0 -0.0 -0.0 0.0 -0.0 -153.921939 5.709623 159.752051 -142.778802 31.127745 158.539087 -4.418704 49.614994 5.370678 0.935875 -2.977326 0.126297 -177.747581 -15.324192 89.569824 -22.451826 -40.193463 -0.64179 -160.015165 -33.011829 122.698522 56.839119 -51.562126 0.879164 173.123457 -66.297779 137.614274 -87.564119 61.043458 80.443978 0.004672 0.917534 0.288227 -166.871873 -27.282311 175.1655 -144.109804 8.78177 -140.874541 -153.856193 39.921273 -146.555397 153.921939 5.709623 -159.752051 142.778802 31.127745 -158.539087 4.418704 49.614994 -5.370678 -0.935875 -2.977326 -0.126297 4.166296 4.057514 -0.783763 177.399398 -76.100993 -101.831228 169.304179 -47.434641 -121.43118 66.396851 52.712974 -61.150981 160.673322 -6.667841 -143.245105 -0.984032 14.768545 -2.982314 -0.003602 0.605735 -0.190285 166.416661 -12.260054 -173.360446 75.778902 -51.667921 74.249466 -4.249569 2.433465 -2.260542 -0.0 -0.0 0.0 -0.0 0.0 -0.0 6.817693 3.579341 71.6195 -143.500719 22.514399 75.401052 -0.0 -0.0 0.0 -0.0 0.0 -0.0 -4.304493 0.86717 -39.030537 107.04449 21.518653 -33.974806
-5.08598 57.80499999999999 -0.86651 0.0 -0.0 0.0 -0.0 -4.771896 -180.0 0.0 -4.771896 -180.0 1.681211 -0.191291 9.638157 -1.625502 0.469952 -9.628684 -0.0 -0.0 0.0 -0.0 -0.0 0.0 -155.504155 -3.514523 161.838528 98.354216 -75.912433 75.888312 -106.17473 -87.682779 -110.576132 -0.320459 1.024622 -0.032206 -0.441471 0.435329 0.069465 -113.634554 -1.238556 103.097873 -151.353117 -17.158427 121.133109 21.958875 -0.546593 -11.209903 68.983989 -80.15399 40.578188 -161.524035 0.640784 139.416879 -0.000473 -0.060845 -0.019116 -166.932101 -39.472317 176.468089 -10.077931 -20.711669 -9.541654 -25.138443 -41.630847 -23.693679 155.61387 -4.23638 -161.991154 139.161928 37.943582 -153.843345 105.1097 73.923648 -98.011077 -21.323787 -47.747129 -11.320411 38.895831 29.386874 -16.068743 -40.678377 -36.474206 -5.311784 115.384841 29.817794 -97.60744 2.045035 30.4828 8.119519 161.153703 -8.160616 -143.465095 165.138726 -20.13872 -143.882929 -0.004672 0.917785 -0.288305 166.694877 -19.400555 -174.245496 -31.497272 83.083168 -6.663937 148.646836 11.401625 140.162431 -0.0 -0.0 0.0 -0.0 -2.27635 -180.0 -0.883475 -15.29245 8.568343 -63.824053 28.037051 175.251604 -0.0 -0.0 0.0 -0.0 -2.27635 -180.0 6.880793 -5.921355 107.859822 4.683288 -62.802174 95.660466
-5.21026 57.7824 -1.6819199999999999 0.0 -0.0 0.0 -0.0 -0.0 -0.0 -0.0 0.0 -0.0 12.079709 9.363427 98.098662 -7.558542 13.273406 -98.210849 -0.0 0.0 -0.0 -0.0 0.0 -0.0 -152.050818 14.438761 157.464227 -147.102731 19.451058 163.091195 -0.960574 40.711866 2.882199 -0.798801 2.556663 -0.06969 -170.594228 -8.27758 89.948904 -23.363298 -37.099858 4.123868 -149.660507 -14.029052 120.542504 24.998225 -8.497541 -12.493036 6.533059 -20.414937 -2.717988 4.458341 -12.475125 -0.028568 -145.119721 0.310087 -179.225753 -137.837035 -42.727283 -170.622347 -137.66294 -7.992072 -134.926334 -152.546785 38.10364 -147.434265 153.921939 5.709623 -159.752051 147.42617 18.928291 -161.304231 57.920787 73.013531 -50.125095 -19.272149 -45.07623 -9.735157 0.491581 0.484673 -0.077556 -10.740494 -15.221646 7.99029 138.493513 4.896353 -114.8648 74.891014 61.806372 -63.797385 36.036059 51.723116 -29.832321 -11.553345 -34.474765 4.23578 145.119721 0.310087 179.225753 -21.93982 21.089023 6.639016 -9.96654 32.461829 -8.6263 155.665836 29.176028 145.408003 -0.0 -0.0 0.0 -0.0 -2.27635 -180.0 -0.883475 -15.29245 8.568343 -63.824053 28.037051 175.251604 -0.0 -0.0 0.0 -0.0 -2.27635 -180.0 6.880793 -5.921355 107.859822 0.893785 -37.978945 84.954656
-5.35739 57.7903 -2.4699 0.0 -0.0 0.0 -0.0 -4.771896 -180.0 0.0 -4.771896 180.0 11.624331 6.892644 83.839365 -8.105668 10.81949 -83.772938 0.0 -0.0 -0.0 0.0 -0.0 -0.0 -150.168677 21.535282 155.275413 27.253206 -28.3395 11.055017 -0.910567 21.491809 -31.162555 163.527055 -33.796174 140.197758 -38.895831 29.386874 16.068743 4.93665 -6.497437 15.676076 10.211155 -18.05077 -4.56389 -7.730597 12.241741 6.150882 0.047552 -0.138632 -0.026316 -162.156256 7.913927 141.507555 -114.669357 66.731663 135.092548 -39.32014 -67.440045 -59.884931 -157.329919 57.246404 -150.511839 -77.463514 -51.34907 -77.885473 150.168677 21.535282 -155.275413 -27.253206 -28.3395 -11.055017 1.667375 18.552314 30.804531 -162.088229 -36.582587 -139.269498 171.706035 -9.388422 -89.948992 68.449568 0.659824 -19.796612 -112.65811 -76.285796 -61.487487 168.865828 -31.180961 -104.022647 36.036059 51.723116 -29.832321 7.315338 26.55537 -3.155968 0.00872 -0.872093 0.274064 -0.029287 0.548123 -0.2329 1.149411 -2.914417 1.065731 26.205881 -41.137791 24.439606 -0.0 -0.0 0.0 -0.0 0.0 -0.0 6.817693 3.579341 71.6195 -150.706096 -4.320221 85.195311 -0.0 -0.0 0.0 -0.0 0.0 -0.0 2.721753 1.041334 25.607042 -155.935377 -25.948397 21.410159
-5.53025 57.82820000000001 -3.26329 0.0 -0.0 0.0 -0.0 -0.0 -0.0 -0.0 0.0 -0.0 11.825461 7.620085 88.105023 -8.008792 11.567786 -88.082808 0.0 -0.0 -0.0 0.0 -0.0 -0.0 -155.504155 -3.514523 161.838528 12.703764 17.303566 18.211188 95.095505 74.667009 -99.523351 -46.746546 68.596067 29.950729 -19.688051 17.543742 5.975988 -28.061586 16.626282 32.615048 -148.886119 -12.609784 120.244776 -27.349955 54.372928 23.062894 -161.153703 -8.160616 143.465095 -152.844979 14.990553 139.63375 -145.119466 0.267753 -179.212454 -139.161583 -38.295293 -172.062009 -152.200278 37.330087 -147.582714 -112.094065 -40.133572 -111.878968 155.504155 -3.514523 -161.838528 -12.703764 17.303566 -18.211188 -122.77974 73.916585 126.456031 34.57293 63.010657 -19.070657 -83.25393 -50.258079 -33.616048 153.395973 -10.946491 -119.93337 -0.184726 -0.300416 0.104009 -100.974292 -61.256237 -56.593965 82.840589 61.110826 -74.532293 -35.845948 -71.410936 -9.771296 -0.000474 0.063775 -0.020036 164.829077 -64.146943 178.668792 145.078401 11.767423 141.738648 -6.043324 3.118785 0.977375 -180.0 75.749642 -0.0 -180.0 73.473292 -180.0 -7.475086 -7.806967 -90.632939 -4.898228 28.699737 -83.319415 -180.0 75.749642 -0.0 -180.0 73.473292 -180.0 7.141193 -6.527402 102.138307 75.967315 -77.555361 172.527113
